<?xml version="1.0" encoding="UTF-8" standalone="no"?>
<!-- Created with Inkscape (http://www.inkscape.org/) -->

<svg
   width="100"
   height="100"
   viewBox="0 0 100 100"
   version="1.1"
   id="svg1"
   sodipodi:docname="transport.svg"
   inkscape:version="1.3.2 (091e20e, 2023-11-25)"
   xmlns:inkscape="http://www.inkscape.org/namespaces/inkscape"
   xmlns:sodipodi="http://sodipodi.sourceforge.net/DTD/sodipodi-0.dtd"
   xmlns="http://www.w3.org/2000/svg"
   xmlns:svg="http://www.w3.org/2000/svg">
  <sodipodi:namedview
     id="namedview1"
     pagecolor="#ffffff"
     bordercolor="#000000"
     borderopacity="0.25"
     inkscape:showpageshadow="2"
     inkscape:pageopacity="0.0"
     inkscape:pagecheckerboard="0"
     inkscape:deskcolor="#d1d1d1"
     inkscape:zoom="5.4164762"
     inkscape:cx="52.524924"
     inkscape:cy="56.401983"
     inkscape:window-width="1352"
     inkscape:window-height="844"
     inkscape:window-x="0"
     inkscape:window-y="34"
     inkscape:window-maximized="0"
     inkscape:current-layer="svg1" />
  <defs
     id="defs1">
    <inkscape:path-effect
       effect="bspline"
       id="path-effect44"
       is_visible="true"
       lpeversion="1.3"
       weight="33.333333"
       steps="2"
       helper_size="0"
       apply_no_weight="true"
       apply_with_weight="true"
       only_selected="false"
       uniform="false" />
    <inkscape:path-effect
       effect="spiro"
       id="path-effect43"
       is_visible="true"
       lpeversion="1" />
    <inkscape:path-effect
       effect="spiro"
       id="path-effect39"
       is_visible="true"
       lpeversion="1" />
    <inkscape:path-effect
       effect="spiro"
       id="path-effect38"
       is_visible="true"
       lpeversion="1" />
    <inkscape:path-effect
       effect="spiro"
       id="path-effect38-1"
       is_visible="true"
       lpeversion="1" />
    <inkscape:path-effect
       effect="spiro"
       id="path-effect38-1-7"
       is_visible="true"
       lpeversion="1" />
    <inkscape:path-effect
       effect="spiro"
       id="path-effect38-1-7-5"
       is_visible="true"
       lpeversion="1" />
    <inkscape:path-effect
       effect="spiro"
       id="path-effect38-1-7-2"
       is_visible="true"
       lpeversion="1" />
    <inkscape:path-effect
       effect="spiro"
       id="path-effect38-1-7-58"
       is_visible="true"
       lpeversion="1" />
    <inkscape:path-effect
       effect="bspline"
       id="path-effect44-3"
       is_visible="true"
       lpeversion="1.3"
       weight="33.333333"
       steps="2"
       helper_size="0"
       apply_no_weight="true"
       apply_with_weight="true"
       only_selected="false"
       uniform="false" />
    <inkscape:path-effect
       effect="bspline"
       id="path-effect44-36"
       is_visible="true"
       lpeversion="1.3"
       weight="33.333333"
       steps="2"
       helper_size="0"
       apply_no_weight="true"
       apply_with_weight="true"
       only_selected="false"
       uniform="false" />
  </defs>
  <path
     style="fill:#ffffff;fill-opacity:0.315789;stroke:#000000;stroke-width:0.3;stroke-dasharray:none"
     d="m 24.985848,24.407696 c 0,0 -0.03294,29.622715 0,41.371506 0.03294,11.748791 53.712005,10.392025 53.720425,0 0.0085,-10.392025 -0.192536,-41.371506 -0.192536,-41.371506"
     id="kettle"
     sodipodi:nodetypes="czzc" />
  <rect
     style="fill:#ffffff;fill-opacity:0.315789;stroke:#000000;stroke-width:0.3;stroke-dasharray:none"
     id="stove"
     width="61.422283"
     height="5.342628"
     x="21.127729"
     y="85.426285"
     ry="2.671314" />
  <g
     id="flames">
    <path
       style="fill:#ffffff;fill-opacity:1;stroke:#000000;stroke-width:0.788688;stroke-dasharray:none"
       d="m 46.447104,-41.78144 c -1.369356,0.108428 -2.766527,-0.338548 -3.848711,-1.18458 -1.082184,-0.846032 -1.84705,-2.077006 -2.173476,-3.411299 -0.396968,-1.622642 -0.153337,-3.361352 0.490098,-4.902955 0.643434,-1.541604 1.668441,-2.899951 2.831049,-4.09949 2.325215,-2.399077 5.213467,-4.209854 7.455398,-6.686938 0.448262,-0.49528 0.876435,-1.02219 1.429985,-1.39612 0.276775,-0.186965 0.584006,-0.333406 0.910719,-0.402822 0.326714,-0.06942 0.673766,-0.05933 0.987347,0.05568 0.264937,0.09717 0.500561,0.267011 0.690029,0.476141 0.189468,0.20913 0.333813,0.456794 0.439323,0.718521 0.211021,0.523455 0.267008,1.094876 0.305435,1.657954 0.358193,5.248652 -0.69706,10.703895 -3.653488,15.055468 -0.694667,1.022482 -1.496592,1.985761 -2.477808,2.73759 -0.981216,0.751828 -2.153622,1.285279 -3.3859,1.382853 z"
       id="path38"
       inkscape:path-effect="#path-effect38"
       inkscape:original-d="m 46.447104,-41.78144 c -2.799789,1.53196 -4.014791,-3.06392 -6.022187,-4.595879 -2.007396,-1.53196 10.248283,-11.991549 10.776545,-15.689383 0.528262,-3.697834 1.901979,1.722087 3.328051,-1.743265 1.434787,-3.486528 -0.78674,1.162177 1.434787,2.852616 2.221527,1.690438 -3.280878,10.195457 -3.653488,15.055468 -0.37261,4.86001 -3.063919,2.588483 -5.863708,4.120443 z"
       sodipodi:nodetypes="sssssss"
       transform="matrix(0.43510116,0,0,0.33253799,7.823476,97.328495)" />
    <path
       style="fill:#ffffff;fill-opacity:1;stroke:#000000;stroke-width:0.788688;stroke-dasharray:none"
       d="m 46.447104,-41.78144 c -1.369356,0.108428 -2.766527,-0.338548 -3.848711,-1.18458 -1.082184,-0.846032 -1.84705,-2.077006 -2.173476,-3.411299 -0.396968,-1.622642 -0.153337,-3.361352 0.490098,-4.902955 0.643434,-1.541604 1.668441,-2.899951 2.831049,-4.09949 2.325215,-2.399077 5.213467,-4.209854 7.455398,-6.686938 0.448262,-0.49528 0.876435,-1.02219 1.429985,-1.39612 0.276775,-0.186965 0.584006,-0.333406 0.910719,-0.402822 0.326714,-0.06942 0.673766,-0.05933 0.987347,0.05568 0.264937,0.09717 0.500561,0.267011 0.690029,0.476141 0.189468,0.20913 0.333813,0.456794 0.439323,0.718521 0.211021,0.523455 0.267008,1.094876 0.305435,1.657954 0.358193,5.248652 -0.69706,10.703895 -3.653488,15.055468 -0.694667,1.022482 -1.496592,1.985761 -2.477808,2.73759 -0.981216,0.751828 -2.153622,1.285279 -3.3859,1.382853 z"
       id="path38-7"
       inkscape:path-effect="#path-effect38-1"
       inkscape:original-d="m 46.447104,-41.78144 c -2.799789,1.53196 -4.014791,-3.06392 -6.022187,-4.595879 -2.007396,-1.53196 10.248283,-11.991549 10.776545,-15.689383 0.528262,-3.697834 1.901979,1.722087 3.328051,-1.743265 1.434787,-3.486528 -0.78674,1.162177 1.434787,2.852616 2.221527,1.690438 -3.280878,10.195457 -3.653488,15.055468 -0.37261,4.86001 -3.063919,2.588483 -5.863708,4.120443 z"
       sodipodi:nodetypes="sssssss"
       transform="matrix(0.41830394,-0.10716533,0.10223258,0.31970026,25.264634,101.97574)" />
    <path
       style="fill:#ffffff;fill-opacity:1;stroke:#000000;stroke-width:0.788688;stroke-dasharray:none"
       d="m 46.447104,-41.78144 c -1.369356,0.108428 -2.766527,-0.338548 -3.848711,-1.18458 -1.082184,-0.846032 -1.84705,-2.077006 -2.173476,-3.411299 -0.396968,-1.622642 -0.153337,-3.361352 0.490098,-4.902955 0.643434,-1.541604 1.668441,-2.899951 2.831049,-4.09949 2.325215,-2.399077 5.213467,-4.209854 7.455398,-6.686938 0.448262,-0.49528 0.876435,-1.02219 1.429985,-1.39612 0.276775,-0.186965 0.584006,-0.333406 0.910719,-0.402822 0.326714,-0.06942 0.673766,-0.05933 0.987347,0.05568 0.264937,0.09717 0.500561,0.267011 0.690029,0.476141 0.189468,0.20913 0.333813,0.456794 0.439323,0.718521 0.211021,0.523455 0.267008,1.094876 0.305435,1.657954 0.358193,5.248652 -0.69706,10.703895 -3.653488,15.055468 -0.694667,1.022482 -1.496592,1.985761 -2.477808,2.73759 -0.981216,0.751828 -2.153622,1.285279 -3.3859,1.382853 z"
       id="path38-7-4"
       inkscape:path-effect="#path-effect38-1-7"
       inkscape:original-d="m 46.447104,-41.78144 c -2.799789,1.53196 -4.014791,-3.06392 -6.022187,-4.595879 -2.007396,-1.53196 10.248283,-11.991549 10.776545,-15.689383 0.528262,-3.697834 1.901979,1.722087 3.328051,-1.743265 1.434787,-3.486528 -0.78674,1.162177 1.434787,2.852616 2.221527,1.690438 -3.280878,10.195457 -3.653488,15.055468 -0.37261,4.86001 -3.063919,2.588483 -5.863708,4.120443 z"
       sodipodi:nodetypes="sssssss"
       transform="matrix(0.37037743,-0.20436984,0.19496283,0.2830711,42.74321,104.72478)" />
    <path
       style="fill:#ffffff;fill-opacity:1;stroke:#000000;stroke-width:0.788688;stroke-dasharray:none"
       d="m 46.447104,-41.78144 c -1.369356,0.108428 -2.766527,-0.338548 -3.848711,-1.18458 -1.082184,-0.846032 -1.84705,-2.077006 -2.173476,-3.411299 -0.396968,-1.622642 -0.153337,-3.361352 0.490098,-4.902955 0.643434,-1.541604 1.668441,-2.899951 2.831049,-4.09949 2.325215,-2.399077 5.213467,-4.209854 7.455398,-6.686938 0.448262,-0.49528 0.876435,-1.02219 1.429985,-1.39612 0.276775,-0.186965 0.584006,-0.333406 0.910719,-0.402822 0.326714,-0.06942 0.673766,-0.05933 0.987347,0.05568 0.264937,0.09717 0.500561,0.267011 0.690029,0.476141 0.189468,0.20913 0.333813,0.456794 0.439323,0.718521 0.211021,0.523455 0.267008,1.094876 0.305435,1.657954 0.358193,5.248652 -0.69706,10.703895 -3.653488,15.055468 -0.694667,1.022482 -1.496592,1.985761 -2.477808,2.73759 -0.981216,0.751828 -2.153622,1.285279 -3.3859,1.382853 z"
       id="path38-7-4-7"
       inkscape:path-effect="#path-effect38-1-7-2"
       inkscape:original-d="m 46.447104,-41.78144 c -2.799789,1.53196 -4.014791,-3.06392 -6.022187,-4.595879 -2.007396,-1.53196 10.248283,-11.991549 10.776545,-15.689383 0.528262,-3.697834 1.901979,1.722087 3.328051,-1.743265 1.434787,-3.486528 -0.78674,1.162177 1.434787,2.852616 2.221527,1.690438 -3.280878,10.195457 -3.653488,15.055468 -0.37261,4.86001 -3.063919,2.588483 -5.863708,4.120443 z"
       sodipodi:nodetypes="sssssss"
       transform="matrix(0.27212816,-0.30387571,0.28988851,0.2079814,62.809551,105.69737)" />
    <path
       style="fill:#ffffff;fill-opacity:1;stroke:#000000;stroke-width:0.788688;stroke-dasharray:none"
       d="m 46.447104,-41.78144 c -1.369356,0.108428 -2.766527,-0.338548 -3.848711,-1.18458 -1.082184,-0.846032 -1.84705,-2.077006 -2.173476,-3.411299 -0.396968,-1.622642 -0.153337,-3.361352 0.490098,-4.902955 0.643434,-1.541604 1.668441,-2.899951 2.831049,-4.09949 2.325215,-2.399077 5.213467,-4.209854 7.455398,-6.686938 0.448262,-0.49528 0.876435,-1.02219 1.429985,-1.39612 0.276775,-0.186965 0.584006,-0.333406 0.910719,-0.402822 0.326714,-0.06942 0.673766,-0.05933 0.987347,0.05568 0.264937,0.09717 0.500561,0.267011 0.690029,0.476141 0.189468,0.20913 0.333813,0.456794 0.439323,0.718521 0.211021,0.523455 0.267008,1.094876 0.305435,1.657954 0.358193,5.248652 -0.69706,10.703895 -3.653488,15.055468 -0.694667,1.022482 -1.496592,1.985761 -2.477808,2.73759 -0.981216,0.751828 -2.153622,1.285279 -3.3859,1.382853 z"
       id="path38-7-4-0"
       inkscape:path-effect="#path-effect38-1-7-58"
       inkscape:original-d="m 46.447104,-41.78144 c -2.799789,1.53196 -4.014791,-3.06392 -6.022187,-4.595879 -2.007396,-1.53196 10.248283,-11.991549 10.776545,-15.689383 0.528262,-3.697834 1.901979,1.722087 3.328051,-1.743265 1.434787,-3.486528 -0.78674,1.162177 1.434787,2.852616 2.221527,1.690438 -3.280878,10.195457 -3.653488,15.055468 -0.37261,4.86001 -3.063919,2.588483 -5.863708,4.120443 z"
       sodipodi:nodetypes="sssssss"
       transform="matrix(0.14683735,-0.3665993,0.34972496,0.11222447,82.338783,103.68884)" />
    <animateTransform
       attributeName="transform"
       attributeType="XML"
       type="translate"
       values="0 0; 1 0; -1 0; 0 0"
       dur="0.5s"
       repeatCount="indefinite" />
  </g>
  <path
     style="fill:#ffffff;fill-opacity:1;stroke:#000000;stroke-width:0.260992;stroke-dasharray:none"
     d="m 60.072693,-70.941503 8.08598,1.10935 c 3.00587,0.412388 6.010774,0.845193 9.03328,1.10935 6.061836,0.529783 12.199383,0.320624 18.181667,-0.792393 3.036559,-0.564958 6.02998,-1.361622 8.94566,-2.380781"
     id="water"
     inkscape:path-effect="#path-effect39"
     inkscape:original-d="m 60.072693,-70.941503 c 2.695326,0.369783 5.390653,0.739567 8.08598,1.10935 2.695327,0.369783 6.022187,0.739567 9.03328,1.10935 3.011094,0.369784 12.121112,-0.528262 18.181667,-0.792393 6.06056,-0.264131 5.96377,-1.587187 8.94566,-2.380781"
     transform="matrix(1.2149674,0,0,1.0874834,-48.1974,107.94131)" />
  <path
     style="fill:#ff0000;fill-rule:evenodd;stroke-width:0.0999996;stroke-dasharray:none"
     id="path41"
     sodipodi:type="arc"
     sodipodi:cx="-11.886776"
     sodipodi:cy="6.0624051"
     sodipodi:rx="25.319845"
     sodipodi:ry="2.843657"
     sodipodi:start="3.1204099"
     sodipodi:end="3.1333092"
     sodipodi:arc-type="slice"
     d="m -37.200941,6.1226371 a 25.319845,2.843657 0 0 1 -0.0048,-0.036677 l 25.318977,-0.023555 z" />
  <path
     style="fill:#ffffff;fill-opacity:1;stroke:#000000;stroke-width:0.300001;stroke-dasharray:none"
     id="path42"
     sodipodi:type="arc"
     sodipodi:cx="75.879578"
     sodipodi:cy="68.41243"
     sodipodi:rx="0.87174726"
     sodipodi:ry="0.73754144"
     sodipodi:start="3.1204099"
     sodipodi:end="2.8888865"
     sodipodi:arc-type="arc"
     d="m 75.008026,68.428052 a 0.87174726,0.73754144 0 0 1 0.8027,-0.75086 0.87174726,0.73754144 0 0 1 0.932437,0.634551 0.87174726,0.73754144 0 0 1 -0.694819,0.824275 0.87174726,0.73754144 0 0 1 -1.012826,-0.539184"
     sodipodi:open="true">

     <animateTransform
       attributeName="transform"
       attributeType="XML"
       type="translate"
       values="0 0; -5 -30;"
       dur="2s"
       repeatCount="indefinite" />
   </path>
  <path
     style="fill:#ffffff;fill-opacity:1;stroke:#000000;stroke-width:0.300001;stroke-dasharray:none"
     id="bubble2"
     sodipodi:type="arc"
     sodipodi:cx="71.251953"
     sodipodi:cy="70.652885"
     sodipodi:rx="0.87174726"
     sodipodi:ry="0.73754144"
     sodipodi:start="3.1204099"
     sodipodi:end="2.8888865"
     sodipodi:arc-type="arc"
     d="m 70.380401,70.668507 a 0.87174726,0.73754144 0 0 1 0.8027,-0.750859 0.87174726,0.73754144 0 0 1 0.932438,0.634551 0.87174726,0.73754144 0 0 1 -0.69482,0.824275 0.87174726,0.73754144 0 0 1 -1.012826,-0.539185"
     sodipodi:open="true" >

     <animateTransform
       attributeName="transform"
       attributeType="XML"
       type="translate"
       values="0 0; -5 -30;"
       dur="1.8s"
       repeatCount="indefinite" />

   </path>
  <path
     style="fill:#ffffff;fill-opacity:1;stroke:#000000;stroke-width:0.300001;stroke-dasharray:none"
     id="path42-7"
     sodipodi:type="arc"
     sodipodi:cx="28.199802"
     sodipodi:cy="68.41243"
     sodipodi:rx="0.87174726"
     sodipodi:ry="0.73754144"
     sodipodi:start="3.1204099"
     sodipodi:end="2.8888865"
     sodipodi:arc-type="arc"
     d="m 27.328251,68.428052 a 0.87174726,0.73754144 0 0 1 0.8027,-0.75086 0.87174726,0.73754144 0 0 1 0.932437,0.634551 0.87174726,0.73754144 0 0 1 -0.69482,0.824275 0.87174726,0.73754144 0 0 1 -1.012826,-0.539184"
     sodipodi:open="true">

     <animateTransform
       attributeName="transform"
       attributeType="XML"
       type="translate"
       values="0 0; 10 -30;"
       dur="1.5s"
       repeatCount="indefinite" />

   </path>
  <path
     style="fill:#ffffff;fill-opacity:1;stroke:#000000;stroke-width:0.300001;stroke-dasharray:none"
     id="path42-1-6"
     sodipodi:type="arc"
     sodipodi:cx="35.702602"
     sodipodi:cy="71.553589"
     sodipodi:rx="0.87174726"
     sodipodi:ry="0.73754144"
     sodipodi:start="3.1204099"
     sodipodi:end="2.8888865"
     sodipodi:arc-type="arc"
     d="m 34.831051,71.569211 a 0.87174726,0.73754144 0 0 1 0.8027,-0.75086 0.87174726,0.73754144 0 0 1 0.932437,0.634551 0.87174726,0.73754144 0 0 1 -0.69482,0.824275 0.87174726,0.73754144 0 0 1 -1.012826,-0.539184"
     sodipodi:open="true">

     <animateTransform
       attributeName="transform"
       attributeType="XML"
       type="translate"
       values="2 0; 10 -30;"
       dur="1s"
       repeatCount="indefinite" />

   </path>
  <g
     id="steam">
    <path
       style="fill:#ffffff;fill-opacity:1;stroke:#000000;stroke-width:0.487421;stroke-dasharray:none"
       d="m 35.995574,30.744849 c 1.767582,-1.056524 3.535164,-2.113048 3.986443,-3.697855 0.451279,-1.584807 -0.41371,-3.697813 -1.29751,-5.599573 -0.8838,-1.90176 -1.786357,-3.592165 -1.353837,-5.229793 0.432521,-1.637628 2.200068,-3.222382 3.083859,-4.067603 0.883791,-0.84522 0.883791,-0.95087 0.883791,-1.056523"
       id="path43"
       inkscape:path-effect="#path-effect44"
       inkscape:original-d="m 35.995574,30.744849 c 1.767582,-1.056524 3.535164,-2.113048 5.302746,-3.169572 -0.865024,-2.11309 -1.730013,-4.226096 -2.595019,-6.339144 -0.902594,-1.690472 -1.805151,-3.380877 -2.707727,-5.071315 1.767617,-1.584818 3.535164,-3.169572 5.302746,-4.754358 0,-0.105655 0,-0.211305 0,-0.316958"
       transform="matrix(0.59260178,0,0,0.63924966,23.917317,1.6805042)"
       inkscape:transform-center-x="7.7543519"
       inkscape:transform-center-y="-3.3497741" />
    <path
       style="fill:#ffffff;fill-opacity:1;stroke:#000000;stroke-width:0.487421;stroke-dasharray:none"
       d="m 35.995574,30.744849 c 1.767582,-1.056524 3.535164,-2.113048 3.986443,-3.697855 0.451279,-1.584807 -0.41371,-3.697813 -1.29751,-5.599573 -0.8838,-1.90176 -1.786357,-3.592165 -1.353837,-5.229793 0.432521,-1.637628 2.200068,-3.222382 3.083859,-4.067603 0.883791,-0.84522 0.883791,-0.95087 0.883791,-1.056523"
       id="path43-0"
       inkscape:path-effect="#path-effect44-3"
       inkscape:original-d="m 35.995574,30.744849 c 1.767582,-1.056524 3.535164,-2.113048 5.302746,-3.169572 -0.865024,-2.11309 -1.730013,-4.226096 -2.595019,-6.339144 -0.902594,-1.690472 -1.805151,-3.380877 -2.707727,-5.071315 1.767617,-1.584818 3.535164,-3.169572 5.302746,-4.754358 0,-0.105655 0,-0.211305 0,-0.316958"
       transform="matrix(0.59260178,0,0,0.63924966,28.743056,1.6805042)"
       inkscape:transform-center-x="2.9286129"
       inkscape:transform-center-y="-3.3497741" />
    <path
       style="fill:#ffffff;fill-opacity:1;stroke:#000000;stroke-width:0.487421;stroke-dasharray:none"
       d="m 35.995574,30.744849 c 1.767582,-1.056524 3.535164,-2.113048 3.986443,-3.697855 0.451279,-1.584807 -0.41371,-3.697813 -1.29751,-5.599573 -0.8838,-1.90176 -1.786357,-3.592165 -1.353837,-5.229793 0.432521,-1.637628 2.200068,-3.222382 3.083859,-4.067603 0.883791,-0.84522 0.883791,-0.95087 0.883791,-1.056523"
       id="path43-08"
       inkscape:path-effect="#path-effect44-36"
       inkscape:original-d="m 35.995574,30.744849 c 1.767582,-1.056524 3.535164,-2.113048 5.302746,-3.169572 -0.865024,-2.11309 -1.730013,-4.226096 -2.595019,-6.339144 -0.902594,-1.690472 -1.805151,-3.380877 -2.707727,-5.071315 1.767617,-1.584818 3.535164,-3.169572 5.302746,-4.754358 0,-0.105655 0,-0.211305 0,-0.316958"
       transform="matrix(0.59260178,0,0,0.63924966,33.568794,1.6805042)"
       inkscape:transform-center-x="-1.8971251"
       inkscape:transform-center-y="-3.3497741" />
    <animateTransform
       attributeName="transform"
       type="translate"
       from="0 10"
       to="0 0"
       dur="2s"
       repeatCount="indefinite" />
  </g>
</svg>
